<?xml version="1.0" standalone="no"?>
<!DOCTYPE svg PUBLIC "-//W3C//DTD SVG 20010904//EN"
 "http://www.w3.org/TR/2001/REC-SVG-20010904/DTD/svg10.dtd">
<svg version="1.0" xmlns="http://www.w3.org/2000/svg"
 width="1080.000000pt" height="1080.000000pt" viewBox="0 0 1080.000000 1080.000000"
 preserveAspectRatio="xMidYMid meet">
<metadata>
Created by potrace 1.16, written by Peter Selinger 2001-2019
</metadata>
<g transform="translate(0.000000,1080.000000) scale(0.100000,-0.100000)"
fill="#000000" stroke="none">
<path d="M7231 10797 c2 -2 45 -25 94 -51 50 -27 98 -55 108 -64 9 -8 17 -11
17 -6 0 5 4 4 8 -2 4 -6 48 -38 97 -71 190 -127 339 -253 463 -393 42 -47 80
-84 85 -82 5 1 6 -2 2 -8 -4 -6 8 -28 27 -49 42 -48 113 -153 113 -166 0 -14
25 -39 32 -31 9 8 -83 161 -96 159 -6 -2 -8 3 -5 11 3 8 -5 21 -18 30 -13 9
-23 20 -22 24 3 21 -207 242 -326 344 -136 116 -521 358 -569 358 -8 0 -12 -2
-10 -3z"/>
<path d="M7708 10775 c17 -14 35 -25 41 -25 6 0 11 -5 11 -11 0 -5 5 -7 10 -4
6 3 10 2 10 -3 0 -5 37 -38 83 -73 111 -84 326 -300 426 -428 52 -66 81 -97
82 -85 2 62 14 119 39 194 33 101 105 265 131 299 21 26 25 46 9 36 -14 -9
-105 -191 -129 -258 -36 -100 -55 -172 -56 -210 l0 -39 -25 33 c-112 148 -366
408 -460 472 -19 13 -67 47 -106 75 -72 53 -120 72 -66 27z"/>
<path d="M4465 9950 c-271 -48 -527 -193 -696 -394 -104 -123 -133 -223 -89
-302 12 -20 19 -39 15 -42 -3 -3 -5 -3 -5 1 0 6 -94 -58 -200 -135 -57 -42
-208 -175 -238 -211 -13 -15 -29 -24 -34 -20 -6 3 -8 2 -5 -4 10 -16 -46 -64
-62 -54 -7 5 -10 14 -7 20 4 6 2 11 -3 11 -14 0 -14 -23 0 -37 8 -8 -2 -28
-40 -72 -129 -156 -253 -380 -290 -526 -6 -23 -36 -79 -66 -125 -31 -47 -79
-122 -107 -168 l-52 -84 -18 24 c-254 319 -372 711 -337 1122 6 72 17 160 24
196 23 109 101 357 116 370 17 15 77 150 69 155 -6 3 -10 -2 -10 -12 0 -10
-11 -28 -25 -41 -15 -14 -22 -29 -18 -39 4 -10 2 -14 -4 -10 -13 8 -56 -90
-46 -107 3 -6 2 -8 -2 -3 -23 20 -104 -263 -125 -437 -9 -66 -11 -166 -7 -294
l5 -195 -39 -90 c-22 -49 -48 -119 -57 -154 l-18 -64 -37 123 c-61 205 -71
278 -72 508 0 333 46 523 208 850 50 102 92 188 93 193 1 4 2 12 3 18 0 5 6 7
13 3 7 -4 8 -3 4 5 -4 6 -11 9 -16 6 -16 -10 -70 -118 -63 -128 3 -6 1 -7 -5
-3 -14 8 -56 -70 -46 -86 4 -6 3 -8 -3 -5 -26 16 -149 -312 -194 -513 -27
-121 -37 -424 -20 -568 42 -339 195 -678 418 -925 41 -45 80 -83 87 -85 7 -2
18 10 25 25 6 16 23 42 36 58 14 17 -5 -22 -43 -85 -83 -139 -124 -218 -209
-409 -151 -341 -213 -593 -215 -871 -2 -378 84 -652 235 -747 38 -24 39 -26
33 -66 -26 -183 -29 -246 -17 -380 7 -76 21 -172 32 -215 34 -130 138 -306
169 -287 8 5 11 4 7 -2 -11 -17 22 -38 66 -42 5 -1 5 -6 1 -13 -4 -6 -3 -8 4
-5 6 4 -17 34 -54 71 -73 73 -109 141 -149 280 -29 102 -31 144 -10 276 32
209 76 314 192 458 42 51 77 91 79 90 1 -2 -4 -37 -12 -78 -32 -168 -28 -441
12 -670 21 -121 78 -233 155 -304 37 -34 65 -53 74 -50 8 4 15 2 15 -4 0 -5 8
-13 18 -16 9 -4 -5 16 -32 43 -37 37 -52 47 -59 38 -6 -8 -7 -6 -3 6 4 11 -4
31 -19 51 -78 103 -119 280 -99 429 7 49 24 55 24 9 0 -72 100 -322 134 -335
11 -5 11 0 -1 24 -8 16 -12 37 -9 45 4 10 2 13 -6 8 -8 -5 -9 3 -5 27 5 24 4
30 -3 19 -8 -12 -10 -9 -10 13 0 16 -4 26 -8 23 -13 -8 -1 62 13 74 9 8 11 4
7 -15 -4 -25 12 -35 21 -12 3 6 6 -2 6 -20 1 -18 7 -36 14 -40 6 -4 35 -52 62
-107 34 -67 71 -122 115 -170 36 -39 76 -89 90 -111 14 -22 40 -54 58 -72 20
-19 30 -38 26 -44 -4 -7 -3 -9 3 -6 11 7 80 -70 76 -85 -2 -4 2 -8 9 -8 22 0
97 -81 90 -98 -3 -10 -1 -13 6 -8 7 4 20 2 29 -3 10 -6 14 -11 10 -11 -4 0 -2
-6 5 -14 7 -8 16 -12 19 -10 4 2 14 -5 24 -16 10 -12 13 -20 7 -20 -7 0 -12 5
-12 10 0 6 -6 10 -12 10 -7 0 2 -14 21 -30 18 -17 40 -30 48 -30 11 0 8 6 -8
20 l-24 21 40 -16 c30 -12 56 -15 103 -10 56 6 62 5 62 -12 1 -10 11 -43 24
-73 13 -29 22 -61 19 -70 -4 -11 -3 -12 4 -2 7 9 18 3 44 -25 19 -21 34 -42
35 -48 1 -24 17 -65 25 -65 5 0 4 12 -1 26 -16 40 -11 42 10 4 11 -21 16 -45
13 -59 -4 -16 0 -28 10 -36 18 -13 65 -150 71 -204 2 -20 1 -27 -2 -16 l-4 20
-9 -20 c-6 -14 -7 -8 -4 20 3 22 0 47 -6 55 -8 12 -9 11 -4 -7 3 -12 1 -25 -6
-29 -9 -5 -11 6 -6 47 3 33 2 46 -3 34 -9 -22 -13 -14 -11 25 0 14 -2 19 -5
13 -8 -18 -27 -16 -21 1 3 8 -5 36 -17 63 -13 26 -26 58 -30 70 -11 36 -51
106 -63 110 -24 8 24 -160 78 -275 21 -45 39 -89 39 -98 0 -8 4 -12 10 -9 5 3
10 1 10 -5 0 -7 13 -39 29 -73 17 -34 41 -87 55 -118 27 -61 44 -149 28 -149
-6 0 -10 -17 -10 -37 0 -21 -5 -39 -11 -41 -6 -2 -11 -10 -11 -17 0 -28 -20
-66 -31 -59 -7 4 -7 9 -1 13 5 3 9 15 9 26 -1 61 4 90 13 75 5 -8 10 -10 10
-5 0 6 -4 16 -9 24 -7 11 -14 -2 -26 -45 -9 -32 -31 -84 -47 -114 -31 -55
-108 -153 -115 -146 -2 2 7 25 21 52 59 119 66 247 21 414 -15 58 -30 115 -32
127 -7 30 -23 29 -23 -1 0 -90 -101 -220 -243 -311 -32 -21 -34 -16 -6 16 124
140 130 320 22 612 -20 53 -38 95 -41 92 -3 -3 -14 -28 -24 -57 -24 -70 -77
-148 -127 -187 -23 -18 -41 -31 -41 -28 0 2 16 31 35 63 49 80 60 124 59 229
-1 72 -7 105 -29 165 -15 41 -32 80 -39 85 -6 6 -22 30 -34 55 -12 25 -22 39
-22 32 0 -14 39 -94 50 -102 3 -3 17 -38 30 -78 38 -119 27 -265 -27 -363 -36
-67 -72 -98 -124 -107 l-44 -8 46 -10 c39 -9 52 -8 80 7 19 10 44 23 56 28 34
16 146 135 136 144 -3 3 1 23 8 44 l12 38 28 -87 c15 -48 33 -97 40 -110 l12
-23 -22 20 c-20 18 -20 15 6 -35 25 -50 28 -65 28 -155 0 -93 -2 -105 -33
-167 -29 -60 -67 -102 -134 -150 -21 -15 -21 -16 -3 -13 11 2 30 4 43 4 15 1
21 5 16 13 -5 7 -3 8 5 3 8 -4 24 1 39 12 15 11 44 28 64 37 46 22 178 159
178 185 0 38 19 31 30 -11 6 -24 15 -56 20 -73 27 -90 19 -203 -21 -310 -21
-57 -96 -150 -130 -160 -10 -4 -16 -11 -13 -17 4 -6 3 -9 -2 -5 -5 3 -25 1
-44 -4 -26 -6 -16 -7 40 -4 114 8 262 88 311 168 l19 32 0 -31 c0 -81 62 -194
107 -194 10 0 5 9 -15 28 -33 31 -49 76 -58 171 -8 72 9 80 20 11 9 -56 89
-144 123 -135 21 5 23 2 23 -35 0 -33 -4 -41 -24 -46 -13 -3 -38 -21 -57 -40
-30 -31 -33 -40 -39 -116 -4 -46 -4 -90 0 -98 18 -37 -25 -436 -64 -593 -21
-89 -28 -103 -67 -143 -24 -24 -47 -44 -52 -44 -4 0 -48 35 -97 79 -165 145
-230 153 -405 50 -167 -98 -586 -325 -772 -418 -197 -99 -219 -114 -255 -181
-13 -22 -36 -40 -84 -61 -36 -17 -105 -52 -152 -78 -48 -26 -161 -83 -252
-126 -91 -42 -424 -206 -740 -363 -567 -282 -576 -286 -640 -287 -117 -2 -224
-75 -283 -192 -25 -48 -87 -216 -87 -234 0 -5 77 -9 179 -9 l180 0 -39 94
c-22 51 -46 120 -55 152 -14 55 -14 60 2 72 10 7 26 19 35 27 12 10 19 11 24
4 4 -7 9 -7 13 -2 8 12 82 41 123 48 18 3 45 15 60 25 15 11 31 20 37 20 5 0
11 6 14 14 4 9 14 12 28 9 15 -4 20 -3 15 5 -4 8 0 12 11 12 18 0 1249 614
1468 733 66 35 121 64 122 63 1 -1 -7 -34 -17 -73 -29 -110 -30 -124 -37 -353
-5 -196 1 -317 24 -503 3 -26 2 -47 -3 -46 -5 2 -61 -14 -124 -35 -120 -40
-183 -46 -303 -31 -54 7 -59 6 -159 -48 -285 -152 -331 -177 -336 -182 -3 -3
458 -5 1024 -5 l1029 0 -60 123 c-33 68 -91 212 -130 321 -74 209 -107 266
-155 266 -56 0 -211 -128 -357 -295 l-53 -60 36 65 c20 36 40 71 46 78 18 21
-8 14 -87 -22 -103 -48 -163 -91 -172 -124 -9 -40 -33 -54 -59 -37 -25 16 -35
11 -28 -13 2 -10 -4 2 -15 24 -24 52 -68 251 -81 367 -11 91 0 298 21 413 11
60 48 197 68 247 8 21 32 38 103 72 110 52 245 124 528 279 36 20 109 60 162
89 54 28 98 57 98 64 0 6 17 17 38 24 20 7 54 23 76 36 61 39 166 75 195 68
23 -6 19 -10 -44 -39 -191 -89 -318 -273 -356 -516 -7 -41 -12 -192 -13 -335
-1 -252 0 -266 32 -445 18 -102 47 -225 64 -275 38 -108 109 -273 144 -332
l25 -43 1014 0 c957 0 1014 1 1018 18 4 16 5 16 6 0 1 -17 49 -18 864 -18
l863 0 47 78 c114 190 178 369 255 717 l17 80 41 3 c39 3 41 5 72 72 32 70 66
100 109 100 18 0 130 -54 148 -72 6 -6 -18 4 -52 21 -34 17 -74 31 -88 31 -35
0 -107 -74 -122 -125 -12 -39 -12 -40 30 -83 33 -34 256 -192 271 -192 1 0 45
-26 97 -57 89 -53 298 -157 304 -151 11 12 37 303 45 493 l8 230 -3 -275 c-2
-151 -9 -308 -16 -349 -10 -65 -10 -76 4 -86 14 -10 14 -19 -2 -91 -16 -66
-69 -266 -88 -327 -4 -14 1 -17 30 -17 33 0 36 3 51 47 8 27 26 92 40 146 23
93 36 128 36 97 0 -26 -63 -265 -72 -277 -8 -9 -6 -13 6 -13 21 0 55 74 97
212 18 60 38 108 44 108 18 0 207 -66 272 -94 52 -23 121 -49 368 -143 39 -15
101 -39 138 -54 l68 -28 665 -1 666 0 -7 33 c-18 92 -70 256 -90 289 -35 53
-85 88 -128 88 -20 0 -39 5 -43 11 -4 6 -34 24 -68 39 -48 22 -72 42 -112 91
-248 311 -284 359 -268 359 3 0 43 -26 87 -59 107 -77 295 -198 377 -244 76
-42 220 -100 228 -92 3 3 1 5 -4 5 -6 0 -19 7 -30 15 -18 15 -15 16 35 10 64
-6 81 4 81 51 0 37 -44 107 -168 263 -117 148 -193 232 -205 224 -6 -4 -7 -1
-2 6 4 8 -4 24 -21 42 -15 16 -24 29 -19 29 5 0 98 -45 207 -100 110 -55 206
-100 214 -100 38 0 4 30 -84 72 -53 26 -146 76 -205 112 -59 35 -103 58 -96
50 10 -12 9 -13 -7 -7 -40 14 -182 107 -239 156 -33 29 -66 56 -73 62 -7 5
-34 31 -59 58 -51 52 -71 57 -26 6 61 -69 151 -167 213 -230 226 -232 450
-483 506 -567 17 -26 34 -62 37 -79 6 -31 5 -33 -23 -33 -62 0 -212 65 -372
161 -117 70 -293 188 -323 216 -11 11 -24 20 -30 22 -5 2 -9 7 -8 12 2 4 -3 6
-10 3 -7 -2 -45 25 -85 62 -39 36 -72 62 -72 59 0 -21 105 -174 214 -312 141
-179 200 -245 236 -264 14 -7 20 -14 13 -16 -6 -2 -105 37 -220 88 -236 104
-305 137 -314 152 -4 5 -12 6 -19 2 -9 -5 -11 -4 -6 4 4 6 0 14 -9 17 -33 13
-318 389 -337 445 -2 7 -9 10 -16 8 -17 -6 52 -134 148 -271 47 -66 94 -129
105 -140 23 -22 -147 53 -480 212 -82 40 -222 106 -310 147 -351 164 -318 145
-344 202 -30 63 -44 76 -99 91 -41 11 -52 29 -21 38 11 3 11 1 -1 -8 -22 -17
22 -4 89 26 50 22 170 91 181 103 3 3 19 14 35 23 17 10 29 22 27 28 -1 7 2 9
7 6 16 -10 265 220 255 236 -8 13 -25 -2 -18 -15 3 -7 -3 -2 -14 10 l-19 22
-27 -28 c-27 -28 -36 -52 -12 -32 10 8 16 8 25 -3 9 -11 9 -16 0 -22 -7 -4 -9
-3 -5 4 3 6 2 13 -3 16 -5 4 -12 2 -16 -3 -3 -6 -12 -8 -20 -4 -13 4 -20 -7
-16 -29 0 -4 -7 -4 -16 -1 -12 5 -15 2 -10 -10 3 -9 3 -16 -1 -16 -18 3 -32
-2 -32 -12 0 -5 5 -7 12 -3 7 4 8 3 4 -4 -4 -6 -12 -9 -19 -6 -19 7 -62 -42
-46 -51 8 -6 10 -4 4 5 -5 9 -4 11 4 6 18 -12 -4 -41 -33 -41 -13 -1 -22 3
-19 7 2 5 13 6 24 3 11 -4 19 -2 19 5 0 6 -4 9 -9 6 -5 -4 -11 -1 -13 5 -2 5
-15 -2 -28 -17 -14 -15 -20 -24 -14 -21 7 4 14 0 17 -8 5 -11 1 -12 -18 -5
-18 7 -30 4 -49 -11 -15 -11 -23 -25 -20 -31 4 -6 2 -8 -4 -4 -6 3 -31 -8 -56
-24 -25 -17 -89 -51 -141 -76 l-96 -44 -42 24 c-23 13 -112 63 -197 111 -85
49 -211 123 -280 165 -213 131 -353 210 -392 222 -67 20 -156 -24 -315 -153
-39 -33 -76 -59 -82 -59 -5 0 -39 25 -75 55 -120 102 -137 192 -150 781 -3
132 -7 177 -20 202 -18 34 -43 52 -75 52 -17 0 -21 6 -21 35 0 27 7 39 31 57
16 12 43 43 60 67 16 24 29 38 29 30 0 -23 -40 -92 -63 -111 -14 -11 -17 -18
-9 -18 25 0 69 58 92 122 29 81 36 88 45 41 14 -79 69 -168 120 -195 14 -8 12
-2 -9 23 -37 43 -74 127 -81 182 l-6 42 22 -40 c12 -22 52 -69 88 -105 52 -51
81 -71 136 -92 90 -34 112 -38 148 -31 31 6 31 6 -14 19 -122 36 -219 210
-219 396 0 66 39 268 52 268 5 0 8 -11 8 -25 0 -14 12 -55 27 -92 33 -83 118
-173 209 -221 51 -26 72 -32 120 -31 54 1 56 2 22 9 -21 4 -46 14 -56 24 -25
22 -68 102 -93 173 -26 74 -37 251 -19 320 6 26 13 56 15 66 8 40 17 57 26 52
5 -3 6 2 2 11 -5 13 -3 15 7 9 9 -5 11 -4 6 3 -4 7 -4 17 0 23 4 8 13 1 23
-18 38 -72 125 -147 224 -194 104 -48 175 -51 227 -8 l25 20 -32 -15 c-41 -20
-104 -20 -129 0 -14 11 -15 17 -6 21 8 3 1 13 -19 26 -96 65 -157 310 -114
453 8 27 12 57 9 67 -8 26 61 227 79 227 23 0 14 -40 -28 -120 -25 -50 -45
-96 -42 -103 2 -7 23 26 46 73 23 47 46 89 50 93 5 5 24 -14 44 -42 20 -27 58
-67 85 -88 54 -43 201 -119 247 -129 l30 -6 -30 17 c-104 57 -193 247 -198
425 -2 61 1 69 44 140 25 41 72 112 103 157 31 45 70 112 87 148 17 36 34 64
36 61 18 -17 -65 -277 -107 -336 -22 -31 -25 -40 -10 -40 34 0 127 166 155
274 32 126 46 272 43 431 -2 85 -2 155 0 155 9 0 74 -159 105 -256 45 -139 58
-212 60 -338 1 -78 -2 -108 -15 -132 -22 -41 -102 -122 -130 -134 -22 -8 -22
-9 -2 -9 12 -1 40 13 62 29 23 17 42 28 42 25 0 -3 -16 -37 -36 -76 -37 -74
-99 -149 -149 -181 -22 -14 -24 -18 -8 -13 12 3 31 8 43 10 115 22 263 316
306 606 24 166 15 471 -19 624 -14 61 -34 134 -45 163 -11 28 -18 52 -16 52 2
0 21 -18 41 -41 44 -49 131 -106 191 -127 30 -10 66 -13 114 -10 86 7 133 39
163 114 28 71 27 261 -3 405 -83 394 -242 881 -383 1177 l-69 145 79 119 c155
230 256 467 297 693 9 50 19 170 21 273 4 125 9 182 17 182 12 0 -14 20 -26
20 -5 0 -8 -44 -8 -98 0 -104 -16 -291 -29 -339 -8 -27 -9 -26 -63 58 -84 130
-98 161 -98 224 0 30 -3 55 -7 55 -22 -1 -28 -25 -29 -122 -3 -173 -63 -425
-141 -583 -33 -68 -134 -255 -138 -255 -2 0 -55 100 -117 223 -74 145 -150
277 -221 382 -151 224 -173 254 -223 305 -24 25 -44 51 -44 57 0 7 -6 16 -14
20 -8 4 -85 78 -172 163 -103 100 -176 181 -207 230 -105 159 -245 319 -268
305 -7 -5 -10 -4 -6 2 9 15 -49 67 -64 58 -7 -5 -10 -4 -5 3 9 15 -101 89
-184 123 -116 49 -216 70 -375 80 -82 4 -161 8 -175 7 -50 -2 87 -16 168 -17
92 -1 105 -17 16 -20 -31 -1 -64 -6 -73 -12 -12 -7 -9 -9 14 -5 64 11 162 8
215 -7 193 -55 272 -98 391 -213 41 -41 79 -71 84 -67 4 5 5 3 2 -3 -4 -7 1
-18 10 -25 24 -21 93 -109 93 -121 0 -5 -24 4 -52 21 -89 53 -304 159 -319
158 -20 -2 -91 19 -194 58 -96 36 -145 51 -145 42 0 -3 17 -11 38 -18 146 -47
447 -189 585 -275 95 -61 129 -84 227 -159 164 -125 270 -232 270 -274 0 -22
-21 -10 -98 57 -42 37 -97 83 -122 102 l-45 35 22 -30 c11 -17 48 -56 82 -88
33 -32 60 -60 60 -63 0 -3 3 -9 7 -12 4 -4 4 -1 0 6 -12 21 8 13 44 -17 20
-17 31 -33 26 -38 -5 -4 -11 -2 -13 5 -3 7 -14 17 -25 23 -15 8 -12 0 13 -32
19 -24 36 -46 39 -49 16 -15 121 -152 148 -190 17 -25 60 -78 96 -118 66 -75
107 -139 191 -297 66 -125 180 -291 289 -420 39 -46 31 -19 -11 38 -21 28 -42
59 -48 69 -5 10 -47 71 -91 135 -91 132 -177 271 -229 371 -87 166 -91 172
-103 160 -9 -9 -12 -9 -12 -1 0 7 5 15 10 18 10 6 8 21 -8 65 -12 33 31 -15
98 -110 82 -114 162 -249 268 -447 102 -192 129 -239 164 -290 50 -74 215
-404 266 -533 50 -125 123 -348 140 -426 12 -53 -1 -78 -17 -34 -6 18 -8 37
-4 43 3 5 2 7 -4 4 -6 -4 -19 10 -29 30 -70 137 -242 403 -355 548 -66 86
-155 175 -173 175 -13 0 -5 -32 19 -74 40 -72 83 -214 100 -332 18 -120 32
-548 21 -609 -4 -21 -11 -34 -16 -29 -11 12 -106 254 -176 453 -31 86 -80 215
-109 288 -30 72 -62 160 -73 195 -25 80 -95 254 -128 320 -43 85 -194 332
-216 353 -20 19 -19 17 2 -20 59 -102 162 -290 182 -333 12 -26 25 -49 30 -52
4 -3 14 -23 23 -44 25 -60 55 -160 44 -149 -11 11 -59 132 -59 149 0 7 -4 15
-9 18 -9 6 1 -56 17 -94 5 -14 35 -77 65 -140 99 -205 174 -411 337 -915 77
-241 182 -459 287 -598 25 -33 43 -61 40 -63 -10 -10 -88 59 -130 115 -51 68
-159 274 -207 396 -35 90 -58 123 -37 55 14 -44 113 -305 162 -425 37 -91 86
-238 80 -243 -3 -3 -5 1 -5 8 0 7 -3 11 -6 7 -4 -3 -22 26 -42 66 -44 92 -52
74 -12 -29 69 -180 100 -333 101 -505 0 -111 -18 -305 -28 -296 -2 3 -10 45
-18 96 -21 127 -64 250 -140 399 -98 192 -151 286 -164 290 -15 5 -14 0 5 -48
9 -22 14 -49 11 -60 -3 -11 -1 -18 4 -14 5 3 9 -1 9 -8 0 -7 3 -98 6 -203 6
-175 5 -195 -15 -261 -37 -125 -165 -338 -203 -339 -12 0 -23 -7 -26 -15 -5
-13 -3 -13 11 -1 21 17 21 8 0 -40 -17 -39 -43 -44 -43 -7 0 12 4 16 11 12 7
-4 10 -1 7 7 -7 18 22 69 39 69 7 0 13 7 13 16 0 8 4 13 9 10 5 -4 7 4 3 16
-4 16 -2 19 9 13 11 -6 12 -5 2 6 -7 7 -13 18 -13 24 0 5 5 3 11 -5 9 -12 10
-11 6 8 -5 24 2 29 19 12 7 -7 9 -2 6 18 -2 17 4 44 14 63 10 19 19 39 20 46
1 7 11 43 23 80 45 151 66 388 39 448 -22 50 -31 29 -42 -100 -13 -148 -27
-248 -40 -280 -8 -19 -17 -49 -20 -67 -8 -44 -24 -96 -25 -80 -1 7 -5 11 -10
8 -4 -3 -6 -18 -3 -32 4 -22 2 -26 -11 -21 -9 3 -18 1 -21 -6 -3 -7 -3 23 0
65 3 43 0 144 -6 225 -11 127 -10 164 4 263 18 130 20 236 6 330 -6 36 -19
130 -30 210 -19 145 -50 308 -70 365 -9 27 -10 26 -5 -15 3 -25 11 -81 19
-125 22 -122 29 -251 17 -342 -11 -90 -60 -248 -73 -235 -4 4 -1 39 7 77 34
160 7 456 -76 855 -17 80 -35 152 -40 160 -8 12 -9 11 -5 -5 23 -100 31 -191
29 -370 -1 -220 -15 -305 -28 -175 -9 99 -100 642 -126 750 -78 336 -226 696
-364 889 -105 145 -325 362 -521 512 -54 42 -64 56 -126 180 -84 168 -184 310
-246 350 -71 45 -136 62 -232 61 -152 -1 -305 -48 -385 -118 -29 -26 -29 -26
-2 -10 15 9 37 23 50 31 73 47 292 93 390 82 53 -7 142 -48 181 -84 14 -12 37
-40 53 -60 15 -21 47 -62 70 -90 65 -81 74 -102 25 -64 -46 37 -142 85 -226
112 -74 24 -165 23 -236 -1 -30 -11 -44 -18 -30 -15 143 28 144 28 210 11 95
-24 261 -107 309 -155 33 -33 91 -126 91 -145 0 -3 -40 21 -90 53 -99 65 -217
115 -324 138 -107 22 -122 11 -21 -16 110 -30 269 -103 352 -162 240 -172 362
-276 514 -434 157 -164 227 -262 325 -456 109 -219 177 -456 249 -869 13 -74
33 -187 44 -250 29 -160 41 -425 30 -684 -20 -500 -101 -838 -266 -1104 -144
-232 -273 -377 -389 -435 -39 -19 -97 -57 -130 -84 -81 -67 -127 -94 -198
-114 -70 -20 -62 -24 16 -8 63 13 116 42 211 115 38 30 72 54 75 54 18 0 -154
-137 -200 -158 -47 -23 -193 -46 -224 -37 -18 6 -18 6 -1 -5 14 -9 39 -9 103
0 46 6 91 13 99 16 8 4 15 4 15 1 0 -3 -36 -17 -81 -32 -79 -27 -157 -34 -231
-21 -30 5 -30 4 7 -9 126 -43 266 3 525 174 30 19 60 35 66 33 6 -1 17 5 24
13 7 8 10 15 6 15 -3 0 8 13 26 29 31 27 48 31 48 11 0 -5 -6 -15 -13 -22 -29
-29 -78 -109 -72 -118 3 -5 -8 -35 -25 -67 -17 -31 -28 -63 -26 -70 3 -7 1
-13 -5 -13 -6 0 -7 -5 -4 -10 3 -6 2 -10 -3 -10 -6 0 -8 -10 -4 -22 3 -14 2
-19 -6 -14 -7 4 -12 2 -12 -4 0 -17 -74 -169 -104 -213 -14 -21 -26 -42 -26
-47 0 -6 -4 -10 -10 -10 -5 0 -24 -21 -42 -47 -45 -66 -179 -203 -333 -341
-71 -64 -155 -140 -185 -168 -68 -64 -326 -285 -399 -343 -30 -23 -72 -51 -94
-63 -43 -22 -137 -40 -137 -27 0 5 -8 9 -17 9 -12 0 -14 -3 -6 -8 6 -4 -34 -6
-90 -4 -56 1 -136 2 -177 2 -96 -1 -192 28 -258 78 -103 78 -221 185 -215 195
4 6 1 7 -6 2 -14 -8 -64 33 -56 46 3 4 0 11 -6 15 -8 4 -9 3 -5 -4 15 -24 -10
-10 -54 30 -25 22 -36 34 -25 27 18 -13 19 -13 6 4 -8 9 -16 15 -19 13 -8 -8
-92 56 -86 66 3 5 1 7 -4 6 -15 -5 -142 104 -135 115 3 6 1 7 -6 3 -6 -4 -14
0 -17 8 -3 9 -12 16 -18 16 -21 0 -281 263 -326 330 -45 66 -148 275 -199 402
-16 40 -54 126 -85 191 -31 64 -56 119 -56 122 0 3 17 -14 38 -37 88 -101 121
-133 180 -180 66 -53 97 -62 40 -12 -18 16 -64 68 -101 117 -71 90 -100 118
-47 45 44 -60 37 -66 -12 -10 -79 90 -90 104 -141 186 -29 44 -67 104 -85 131
-18 28 -75 136 -127 240 -120 244 -163 391 -219 760 -40 257 -47 525 -21 750
23 197 112 525 191 702 13 31 23 58 21 60 -14 13 -121 -278 -172 -467 -37
-136 -43 -123 -20 39 27 190 140 620 200 761 15 36 28 73 28 82 1 9 4 15 8 12
4 -2 12 11 19 30 10 33 49 95 120 194 17 24 27 48 24 54 -4 6 -3 8 3 5 6 -4
32 21 58 54 86 110 352 380 453 459 30 25 49 47 45 53 -3 7 -3 9 1 5 5 -4 41
17 81 47 115 86 237 153 327 181 46 14 88 28 93 30 12 5 -38 -3 -75 -11 -21
-5 -22 -4 -8 4 25 17 110 32 228 41 l105 8 -145 -2 c-134 -2 -152 -5 -234 -34
-94 -32 -117 -33 -88 -3 34 37 200 154 252 178 19 8 20 12 7 12 -25 1 -169
-91 -257 -164 -99 -83 -124 -110 -114 -127 4 -7 4 -10 -1 -6 -4 4 -18 -4 -30
-18 -14 -17 -28 -24 -35 -19 -8 5 -11 4 -6 -3 4 -6 -17 -26 -50 -48 -118 -79
-501 -456 -498 -490 1 -8 -2 -12 -6 -9 -12 8 -63 -52 -55 -66 5 -7 4 -10 -3
-5 -6 3 -31 -20 -57 -54 -26 -34 -49 -59 -52 -56 -7 7 131 269 197 375 65 104
149 219 213 291 27 30 8 13 -42 -39 -97 -99 -242 -304 -307 -434 -96 -188
-284 -625 -290 -670 -2 -16 -10 -48 -18 -70 -7 -23 -30 -98 -51 -167 -20 -69
-54 -178 -76 -243 -22 -65 -37 -122 -35 -126 4 -6 -33 -153 -80 -321 -9 -30
-19 -68 -24 -85 -9 -34 -57 -195 -72 -240 -26 -80 -80 -306 -84 -350 -2 -27
-9 -63 -14 -80 -16 -50 -31 -162 -24 -179 5 -12 10 -14 19 -6 20 16 23 2 19
-75 -10 -174 -18 -228 -36 -231 -19 -2 -23 25 -19 107 1 20 3 62 5 95 1 33 5
65 9 71 4 6 3 14 -2 18 -12 7 -20 -35 -24 -120 -2 -33 -4 -7 -5 58 -2 92 1
117 11 111 9 -5 9 -4 0 6 -12 14 -11 30 13 142 8 37 14 70 14 75 0 34 -129
-227 -215 -434 -10 -24 -21 -43 -25 -43 -22 0 -27 188 -9 315 17 127 62 261
82 248 6 -3 7 -1 3 5 -7 12 19 54 107 172 117 159 220 341 256 450 63 196 66
223 7 80 -107 -263 -183 -381 -526 -815 -142 -180 -186 -277 -238 -525 l-10
-45 -1 70 c-2 189 36 373 149 720 129 393 165 527 245 900 63 294 145 565 220
723 25 52 44 97 42 98 -7 8 -89 -148 -127 -240 -38 -93 -82 -236 -141 -460 -9
-37 -14 -45 -19 -30 -6 16 -4 51 11 167 1 7 1 19 0 27 -3 25 -40 -73 -40 -107
-1 -18 -6 -33 -12 -33 -7 0 -9 -11 -6 -27 3 -16 -1 -62 -8 -103 -9 -52 -13
-64 -14 -40 l-2 35 -14 -25 c-14 -23 -15 -17 -10 65 3 50 12 120 20 156 15 73
73 207 99 228 14 12 16 12 12 0 -11 -36 -16 -83 -7 -74 5 6 12 35 16 65 7 51
6 54 -10 40 -26 -22 -93 -124 -116 -177 -35 -83 -120 -441 -126 -533 -6 -100
10 -218 37 -276 11 -22 20 -47 20 -55 0 -26 -43 -159 -51 -159 -15 0 -70 130
-87 204 -21 93 -20 285 2 391 34 160 169 504 266 673 23 42 40 83 38 95 -3 17
-12 6 -41 -48 l-37 -70 5 45 c4 25 11 60 17 78 5 18 7 49 4 68 -6 29 -1 43 30
89 20 30 40 58 45 61 5 3 9 10 9 17 0 19 -78 -63 -150 -158 -72 -95 -93 -129
-135 -210 l-26 -50 55 60 c31 33 56 64 56 68 0 11 30 41 30 31 0 -5 6 -2 12 4
10 10 10 15 -2 22 -12 7 -10 9 7 7 18 -1 20 -4 11 -22 -6 -11 -14 -22 -18 -25
-14 -11 -100 -141 -159 -243 -126 -216 -268 -579 -315 -809 -14 -66 -28 -123
-31 -126 -19 -19 9 276 39 413 82 369 334 889 689 1420 130 195 226 310 320
382 32 25 56 47 53 50 -3 3 12 15 33 27 69 38 134 81 157 102 13 12 25 20 28
18 3 -2 4 -1 1 3 -3 3 13 14 36 24 26 12 38 23 33 30 -4 8 -3 9 5 5 14 -9 64
21 56 33 -3 5 2 12 11 15 10 4 13 2 8 -7 -6 -8 -3 -8 9 1 9 8 15 17 14 20 -1
4 1 8 5 10 14 4 58 45 54 50 -4 4 -118 -71 -211 -139 -70 -51 -76 -51 -36 2
22 29 55 79 73 112 18 32 42 67 52 78 35 34 -1 20 -62 -26 -34 -24 -103 -79
-154 -122 -52 -43 -110 -91 -129 -106 -22 -18 -26 -24 -10 -16 l23 11 -18 -25
c-11 -14 -21 -23 -23 -22 -2 2 -26 -27 -54 -65 -28 -38 -55 -66 -60 -63 -5 3
-6 -5 -2 -17 6 -19 4 -22 -9 -17 -14 6 -16 3 -11 -13 5 -15 3 -18 -9 -14 -16
6 -20 -4 -17 -36 2 -12 0 -12 -7 -2 -12 17 -22 17 -34 0 -8 -10 -9 -10 -5 2 2
8 10 14 17 12 8 -2 11 5 8 22 -4 17 -1 23 9 19 7 -3 13 2 13 11 0 9 5 16 11
16 5 0 8 4 4 9 -3 5 -1 12 5 16 5 3 10 15 10 25 0 12 5 17 13 14 8 -3 19 7 26
23 l13 28 -23 -20 c-20 -17 -22 -18 -16 -3 46 127 383 454 625 607 l53 34 37
-35 c41 -39 80 -63 90 -54 9 10 -51 67 -66 61 -7 -2 -10 0 -7 5 4 6 -14 38
-39 71 -25 34 -46 71 -46 84 0 12 17 56 37 96 110 220 474 452 803 510 78 13
270 17 323 6 21 -5 37 -4 37 1 0 27 -262 28 -405 2z m-1060 -1160 c-20 -34
-60 -84 -89 -111 -92 -90 -276 -251 -276 -242 0 23 169 230 243 297 93 85 148
128 155 121 2 -2 -13 -31 -33 -65z m-789 -1411 c-9 -27 -41 -98 -71 -157 -71
-143 -130 -292 -161 -411 -30 -114 -44 -356 -25 -456 15 -78 59 -171 104 -219
l37 -39 -71 -219 c-38 -120 -73 -218 -76 -218 -3 0 -29 25 -58 56 -54 58 -79
62 -43 6 23 -37 34 -43 17 -9 -8 15 0 11 27 -15 35 -35 37 -39 25 -62 l-14
-25 -38 42 c-57 63 -66 83 -46 105 16 17 14 22 -18 83 -82 155 -86 337 -16
656 73 333 234 697 405 917 36 46 44 34 22 -35z m5813 -374 c45 -177 54 -254
48 -395 -5 -118 -19 -197 -48 -265 -12 -26 -14 6 -20 235 -5 179 -14 314 -28
415 -11 83 -21 164 -20 180 1 30 1 30 19 -10 11 -23 32 -95 49 -160z m104 8
c126 -224 231 -454 287 -628 30 -93 32 -108 27 -205 -7 -159 -61 -276 -148
-321 -38 -19 -41 -19 -75 -3 -50 24 -136 123 -179 207 l-36 73 37 99 c72 193
86 256 91 421 6 177 -16 311 -72 448 -21 49 18 -2 68 -91z m-5958 -468 c4 -22
12 -48 17 -58 10 -19 -15 -152 -32 -170 -17 -19 -43 102 -48 221 -3 105 -1
138 19 220 l24 97 6 -135 c3 -74 9 -153 14 -175z m604 -167 c0 -38 5 -68 11
-68 26 0 8 -77 -40 -169 -27 -53 -57 -114 -65 -136 -13 -31 -18 -37 -26 -25
-7 11 -8 8 -4 -10 5 -19 0 -31 -16 -45 l-22 -20 6 45 c3 25 17 81 30 125 14
44 34 118 46 165 66 262 66 261 72 233 4 -16 7 -58 8 -95z m4539 -160 c-2 -42
0 -71 4 -65 13 21 8 -75 -7 -148 -8 -38 -15 -83 -15 -100 0 -23 -3 -27 -10
-15 -7 12 -10 8 -10 -15 0 -16 -5 -37 -11 -45 -8 -12 -9 -11 -5 5 3 11 10 119
16 240 7 121 13 229 15 240 2 11 4 43 6 70 2 49 2 49 11 -20 5 -38 8 -104 6
-147z m-4516 -623 c51 -27 47 -17 81 -202 10 -55 11 -73 2 -73 -6 0 -49 34
-94 75 -46 41 -91 75 -100 75 -61 0 -83 -69 -74 -236 7 -136 14 -162 30 -104
8 32 8 40 -3 40 -15 0 -17 56 -6 145 l7 50 47 -1 c37 -2 45 1 41 13 -5 12 -7
12 -14 1 -6 -9 -9 -9 -9 -1 0 19 17 24 30 8 7 -8 20 -15 29 -15 20 0 64 -43
54 -53 -3 -4 3 -7 14 -7 24 0 73 -39 58 -46 -87 -41 -101 -52 -127 -104 -29
-56 -35 -94 -18 -120 9 -13 11 -13 20 0 5 8 9 20 9 25 0 6 -3 4 -6 -3 -8 -21
-21 -4 -15 23 4 24 5 24 19 8 13 -17 13 -16 4 4 -12 24 -1 66 20 79 8 5 10 3
4 -7 -4 -8 2 -4 14 8 13 14 27 20 38 16 11 -4 13 -8 5 -11 -7 -2 -12 -10 -12
-17 0 -8 -11 -22 -25 -33 -14 -11 -25 -23 -25 -27 0 -4 17 7 38 23 48 37 80
54 91 47 5 -3 16 -26 25 -52 l16 -46 -40 -35 c-79 -67 -92 -145 -40 -224 30
-46 109 -118 129 -118 5 0 12 -4 15 -9 3 -4 -6 -6 -19 -3 -14 2 -25 0 -25 -7
0 -6 -7 -8 -17 -4 -11 4 -14 3 -9 -6 16 -25 84 -57 159 -76 42 -10 77 -21 77
-24 0 -7 81 -118 104 -143 9 -10 16 -19 15 -20 -1 -3 13 -39 35 -89 12 -29 12
-36 1 -36 -7 0 -11 6 -8 14 3 7 -2 13 -11 13 -9 0 -16 -8 -16 -20 0 -14 -11
-22 -37 -29 -103 -29 -155 -3 -318 163 -131 132 -215 252 -295 419 -88 182
-110 256 -110 369 0 97 20 247 45 333 22 79 82 120 130 88 11 -7 41 -24 67
-38z m4559 -2 c2 -22 26 -115 34 -135 5 -12 3 -18 -6 -18 -11 0 -11 -2 0 -9
10 -7 19 -4 28 7 13 15 13 14 4 -5 -6 -12 -11 -39 -12 -60 l-1 -38 -9 39 c-5
22 -17 49 -27 60 -9 11 -11 16 -4 12 15 -9 16 17 2 45 -8 15 -17 18 -38 12
-15 -3 -32 -13 -39 -22 -7 -9 -12 -11 -13 -4 0 12 -17 12 -37 0 -21 -13 -16
-55 7 -62 27 -9 25 -16 -10 -50 -36 -35 -49 -29 -15 7 22 24 23 38 4 38 -7 0
-32 -55 -33 -75 -1 -6 -10 -21 -20 -35 l-18 -25 6 25 c3 14 13 69 21 123 18
118 24 131 73 156 37 20 101 28 103 14z m-119 -493 c21 -28 29 -33 39 -22 7 6
23 12 36 12 12 0 27 8 32 18 10 16 10 16 11 0 0 -10 -4 -18 -10 -18 -5 0 -7
-7 -4 -15 5 -12 -2 -15 -31 -15 -34 0 -37 -2 -31 -22 4 -13 9 -43 12 -68 7
-53 -17 -136 -38 -133 -17 3 -60 -64 -47 -73 12 -7 38 24 39 46 1 11 3 11 7 2
10 -25 -84 -182 -100 -166 -3 3 -8 0 -13 -7 -4 -8 -3 -10 4 -5 28 17 8 -13
-39 -59 -65 -64 -104 -114 -95 -123 4 -4 12 1 17 11 6 9 15 17 20 17 6 0 7 -4
4 -10 -3 -6 1 -7 10 -3 12 4 13 8 5 13 -14 9 17 50 38 50 7 0 10 5 6 12 -4 6
-3 8 3 5 6 -4 20 4 32 17 17 18 19 25 9 29 -7 3 -3 4 8 4 21 -1 23 -27 3 -27
-5 0 -8 -6 -6 -12 1 -7 -4 -12 -10 -10 -7 1 -13 -5 -13 -13 0 -9 -9 -26 -21
-38 -13 -15 -18 -17 -14 -6 4 10 3 19 -2 22 -4 3 -9 -6 -9 -20 -2 -25 -37 -67
-48 -56 -6 6 -10 -12 -7 -30 1 -4 -7 -7 -16 -5 -11 2 -17 -2 -15 -11 4 -20
-17 -41 -36 -34 -12 3 -13 2 -5 -4 9 -7 1 -19 -30 -44 -85 -72 -133 -86 -194
-59 -40 18 -43 21 -37 47 12 48 46 116 77 158 77 101 116 131 190 143 33 6 42
12 47 32 8 34 97 90 111 69 6 -10 9 -10 9 -1 0 20 18 14 25 -9 4 -11 9 -18 11
-16 3 2 -1 16 -7 31 -9 20 -15 23 -26 15 -8 -7 -13 -8 -13 -1 0 13 46 43 54
35 10 -11 7 -25 -5 -17 -9 5 4 -29 16 -44 8 -9 1 56 -7 72 -7 12 -6 22 1 29
32 32 1 159 -53 224 -15 18 -25 37 -21 43 3 6 0 7 -10 4 -13 -5 -12 2 6 42 11
27 25 60 31 74 l9 25 32 -35 c18 -20 44 -51 59 -70z m150 -403 c-6 -103 26
-265 74 -382 7 -19 7 -19 -9 -3 -10 9 -24 15 -31 12 -16 -6 -154 145 -150 164
1 7 0 8 -3 2 -10 -20 -22 -9 -32 27 -7 25 -7 41 0 49 6 7 8 19 4 26 -4 7 1 4
10 -7 11 -14 16 -15 14 -5 -5 23 71 141 85 133 5 -3 7 -2 4 3 -9 15 11 56 24
51 9 -3 12 -24 10 -70z m-171 -161 c5 3 9 0 9 -6 0 -7 -7 -10 -15 -6 -8 3 -16
0 -17 -7 0 -7 -2 -16 -3 -22 -2 -5 -3 -15 -4 -22 0 -6 -8 -19 -17 -27 -8 -9
-11 -16 -5 -16 8 0 8 -6 2 -17 -43 -79 -73 -241 -70 -383 2 -104 30 -240 49
-240 4 0 11 -8 15 -17 4 -11 -5 -7 -25 12 -17 16 -28 35 -26 42 3 7 1 13 -4
13 -6 0 -10 9 -10 19 0 10 -7 22 -16 25 -12 4 -14 13 -10 32 4 14 3 23 -2 20
-9 -6 -27 39 -38 99 -5 22 -9 42 -10 45 0 3 -4 24 -9 48 -4 23 -12 42 -18 42
-20 0 23 -242 58 -327 12 -27 11 -31 -1 -26 -8 3 -11 9 -8 14 3 5 0 9 -6 9
-11 0 -53 64 -50 76 1 4 -3 10 -8 13 -26 17 -58 129 -62 221 -1 23 -40 -82
-40 -108 0 -13 16 -47 35 -77 19 -30 31 -55 27 -55 -12 0 -50 -80 -67 -142
-18 -66 -20 -252 -4 -330 12 -58 55 -159 73 -170 6 -4 8 -8 4 -8 -15 0 -97 62
-127 95 -48 56 -89 145 -107 238 -15 76 -15 92 -2 166 9 44 11 81 7 81 -5 0
-9 -2 -9 -4 0 -19 -45 -176 -56 -196 -14 -24 -15 -23 -9 25 9 74 15 91 27 74
7 -10 8 -6 4 13 -4 17 2 51 14 85 23 66 22 63 12 63 -8 0 -33 -56 -71 -160
-34 -93 -60 -220 -68 -330 -9 -120 -10 -110 10 -173 9 -27 11 -49 6 -53 -5 -3
-9 -2 -8 3 1 4 1 17 0 28 -1 16 -3 17 -10 5 -6 -8 -7 -18 -5 -22 3 -4 0 -8 -6
-8 -7 0 -9 12 -5 33 3 17 -1 57 -9 87 l-15 55 0 -42 c-1 -23 4 -45 9 -48 6 -3
10 -13 10 -21 0 -33 -19 -1 -31 52 -13 60 -33 69 -55 26 -6 -13 -17 -29 -23
-35 -6 -6 -11 -19 -11 -30 0 -10 -4 -16 -9 -13 -5 3 -9 0 -8 -7 1 -32 -4 -47
-16 -47 -8 0 -20 -19 -27 -41 -11 -33 -15 -38 -21 -23 -4 11 -8 13 -8 6 -1 -7
-5 -10 -11 -7 -14 9 -12 -8 3 -24 10 -11 8 -11 -12 -1 -24 12 -24 12 -18 -31
5 -34 4 -39 -4 -20 -16 39 10 186 46 266 7 17 17 42 20 57 4 16 12 25 17 22 6
-4 7 2 3 16 -5 17 -4 21 5 15 8 -5 11 -4 7 2 -8 13 23 89 141 343 49 107 97
215 105 240 9 25 27 69 41 97 14 29 26 60 26 68 0 12 14 15 63 14 74 0 116 4
114 12 -1 3 27 31 63 62 71 61 92 83 195 201 38 43 71 73 73 67 2 -6 8 -9 13
-5z m-3337 -1188 c-5 -7 36 -23 49 -20 5 1 6 -1 3 -6 -3 -5 6 -20 20 -33 14
-13 40 -46 59 -74 42 -62 75 -99 218 -245 118 -121 123 -126 202 -230 27 -36
65 -82 84 -102 18 -21 40 -46 47 -57 24 -33 107 -88 162 -106 38 -12 62 -28
89 -60 20 -24 44 -46 54 -48 12 -3 19 -14 19 -28 0 -22 -1 -22 -91 -16 -87 7
-276 56 -382 101 -21 8 -44 13 -52 10 -8 -4 -15 -2 -15 4 0 5 -14 12 -30 16
-27 5 -36 17 -75 101 -25 52 -47 95 -49 95 -2 0 11 -36 31 -81 19 -44 32 -83
30 -85 -7 -7 -202 92 -257 129 -25 17 -53 40 -63 52 -10 11 -15 13 -11 5 4
-10 4 -12 -3 -5 -22 22 -53 117 -53 162 0 26 -5 79 -10 116 -6 37 -12 105 -15
150 -3 45 -7 107 -10 137 -3 41 -2 49 5 30 7 -19 9 -10 6 36 -4 59 -3 62 19
60 13 0 21 -4 19 -8z m3208 -1485 c76 -50 95 -77 133 -183 40 -115 55 -326 28
-395 -4 -12 -12 -9 -37 17 -30 31 -33 41 -49 159 -29 213 -82 340 -173 416
-87 70 -16 61 98 -14z m-2004 -42 c47 -16 67 -19 88 -11 37 14 40 6 7 -15 -23
-15 -31 -16 -57 -5 -69 28 -112 33 -145 19 -37 -17 -43 -28 -31 -69 18 -64 4
-220 -20 -220 -5 0 -6 38 -3 84 8 115 2 133 -52 157 -25 11 -51 17 -58 13 -6
-4 -3 2 7 14 11 12 30 22 43 22 26 0 98 33 108 50 5 8 14 6 30 -4 13 -8 50
-24 83 -35z m34 -1271 c-6 -57 -62 -104 -131 -112 -32 -3 -35 0 -43 30 -5 19
-8 50 -6 70 l3 37 65 6 c112 10 116 9 112 -31z"/>
<path d="M4465 9803 c-287 -61 -595 -318 -583 -485 3 -40 6 -45 48 -65 47 -24
148 -30 200 -13 16 6 -4 7 -55 4 -110 -6 -145 8 -165 64 -14 42 -14 44 15 99
61 118 193 232 360 314 121 59 215 80 355 81 137 1 184 -11 303 -78 100 -57
141 -69 67 -20 -22 14 -41 26 -44 26 -2 0 -24 12 -47 26 l-44 26 48 -6 c98
-12 210 -95 313 -230 24 -32 44 -54 44 -49 0 18 -97 139 -149 186 -75 66 -139
94 -272 117 -135 23 -294 25 -394 3z"/>
<path d="M8713 9703 l-52 -4 25 -67 c59 -163 101 -344 113 -489 6 -77 9 -85
19 -62 12 29 63 84 132 143 25 21 31 29 14 18 -17 -12 -55 -44 -84 -71 -30
-28 -56 -51 -57 -51 -2 0 -3 15 -3 33 0 83 -56 315 -109 452 -17 44 -31 81
-31 82 0 2 17 3 38 4 20 0 46 4 57 9 11 5 13 8 5 7 -8 0 -38 -2 -67 -4z"/>
<path d="M8387 9662 c16 -10 78 -146 105 -230 11 -37 23 -71 27 -77 6 -10 10
-25 16 -60 1 -11 10 -49 18 -85 8 -36 20 -99 26 -140 7 -41 14 -85 16 -97 4
-18 0 -22 -27 -26 -33 -4 -32 -4 5 -5 24 -1 37 2 37 11 0 6 27 34 60 61 33 28
60 52 60 56 0 3 -30 22 -68 42 l-67 37 -22 93 c-31 128 -58 208 -104 308 -41
86 -64 120 -83 120 -7 0 -7 -3 1 -8z"/>
<path d="M6799 8520 c23 -30 58 -76 78 -103 20 -27 40 -44 46 -40 7 3 9 3 5
-2 -7 -7 125 -206 177 -268 6 -7 26 -34 44 -60 18 -26 73 -90 121 -141 86 -89
163 -143 230 -160 15 -4 10 2 -15 15 -22 12 -52 32 -67 46 -16 16 -31 22 -40
17 -7 -4 -10 -4 -6 1 4 4 -24 41 -62 82 -38 41 -88 101 -112 134 -145 202
-300 399 -309 394 -9 -6 -35 37 -28 45 2 3 -6 9 -18 15 -12 5 -25 20 -28 33
-3 14 -9 22 -12 18 -4 -3 -15 2 -27 11 -11 10 0 -7 23 -37z"/>
<path d="M5104 8298 c-31 -47 -142 -265 -119 -234 18 23 18 22 5 -24 -6 -19
-15 -75 -20 -123 -20 -170 19 -348 122 -556 44 -89 64 -117 142 -196 68 -69
108 -100 159 -125 37 -18 67 -35 67 -38 0 -3 -31 -2 -69 1 -124 10 -234 90
-315 230 -21 37 -43 64 -49 60 -5 -3 -7 -1 -4 4 4 6 -4 35 -17 65 -39 89 -67
188 -76 268 -7 73 -7 74 -9 19 -1 -58 31 -204 56 -253 8 -15 17 -40 20 -55 5
-28 62 -133 63 -116 1 6 7 -3 14 -20 39 -87 182 -198 280 -216 111 -20 303 29
362 94 l29 31 -40 -31 c-22 -17 -57 -38 -79 -47 -47 -19 -147 -20 -199 -2 -87
32 -197 132 -278 255 -48 74 -126 253 -133 308 -2 15 -9 68 -16 118 -29 211
15 426 120 582 16 24 26 43 21 43 -5 0 -21 -19 -37 -42z"/>
<path d="M4898 8218 c-79 -126 -167 -429 -198 -683 -31 -250 -43 -295 -120
-442 -88 -170 -255 -420 -354 -532 -41 -47 -72 -89 -69 -94 3 -6 1 -7 -4 -4
-6 4 -19 -3 -29 -15 -11 -12 -13 -18 -5 -13 10 5 12 4 7 -3 -4 -7 -14 -12 -22
-12 -8 0 -12 -4 -9 -10 6 -9 -7 -14 -27 -11 -4 0 -4 -7 -1 -16 5 -12 2 -15
-10 -10 -12 4 -14 2 -10 -10 5 -13 2 -15 -11 -10 -9 4 -15 3 -12 -2 5 -8 -23
-39 -31 -33 -1 1 -3 -1 -4 -5 -1 -13 -42 -53 -53 -53 -7 0 -8 3 -1 8 6 4 17
16 25 26 14 18 -190 -134 -236 -175 -11 -11 -22 -19 -25 -19 -8 0 10 178 31
300 11 63 33 156 50 205 17 50 49 158 71 240 64 236 146 430 254 596 24 37 41
70 38 73 -4 3 -2 6 4 6 6 0 26 24 44 53 18 28 36 54 39 57 3 3 31 37 62 75 31
39 68 81 82 94 14 14 26 29 26 35 0 5 -23 -15 -50 -45 -176 -190 -278 -333
-378 -534 -79 -156 -104 -220 -156 -395 -128 -426 -161 -658 -161 -1145 0
-354 5 -406 61 -614 32 -122 65 -197 131 -297 89 -137 210 -226 301 -223 19 0
12 4 -23 13 -131 33 -206 107 -303 301 -56 113 -87 198 -78 221 3 8 2 13 -3 9
-10 -6 -37 100 -46 185 -3 30 -8 70 -11 88 -5 33 1 38 26 22 13 -9 13 -11 0
-20 -12 -8 -8 -10 15 -11 l30 0 -25 -12 c-35 -15 -36 -17 -21 -27 8 -4 30 -6
49 -3 26 5 33 3 27 -6 -5 -10 2 -12 29 -10 24 2 40 -1 46 -10 10 -17 2 -43
-11 -35 -5 3 -9 0 -9 -5 0 -6 11 -11 24 -11 14 0 28 -4 31 -10 3 -5 10 -10 14
-10 5 0 -5 27 -23 59 l-31 59 25 20 c32 26 200 116 206 110 2 -3 -1 -19 -7
-37 -29 -83 14 -231 90 -311 22 -24 41 -44 41 -46 0 -5 -117 34 -146 49 -29
15 -95 81 -122 123 -7 10 -6 6 2 -11 18 -37 90 -107 131 -128 17 -8 70 -27
120 -42 84 -26 98 -27 215 -22 69 4 141 11 160 17 19 5 55 10 80 11 25 1 56 5
70 10 16 6 -3 7 -57 4 -46 -3 -83 -3 -83 0 0 3 11 22 25 43 36 54 75 157 78
202 2 43 8 48 27 25 7 -8 16 -13 20 -10 4 3 7 -3 6 -13 0 -9 5 -16 12 -14 6 1
12 -3 12 -9 0 -6 11 -25 25 -41 14 -16 23 -33 20 -38 -3 -4 11 -15 31 -25 23
-11 34 -22 30 -31 -3 -8 -1 -14 4 -14 27 0 15 31 -44 121 -36 54 -63 99 -59
99 4 0 22 -14 40 -32 60 -58 34 -11 -29 54 -45 46 -80 71 -121 88 l-58 24 7
41 c3 22 8 42 9 44 2 1 25 -4 52 -13 54 -18 128 -66 187 -120 49 -46 54 -45
19 2 l-27 37 34 -30 33 -30 -24 33 c-13 19 -29 42 -35 53 -6 10 -14 16 -17 12
-4 -3 -15 1 -24 9 -47 40 -283 100 -380 97 l-38 -1 45 -11 c25 -5 46 -11 48
-12 2 -2 -6 -18 -16 -36 -32 -59 -102 -48 -102 16 0 19 5 35 11 35 5 0 7 5 4
10 -4 6 -32 8 -73 4 -82 -8 -93 -14 -24 -14 29 0 52 -3 53 -7 8 -59 4 -68 -28
-71 -25 -3 -39 3 -58 24 -14 15 -28 38 -31 51 -7 27 -3 26 -78 12 -41 -7 -61
-7 -71 1 -9 7 -14 7 -17 0 -5 -16 -139 -51 -173 -44 l-30 5 34 -23 c19 -13 46
-31 59 -40 l26 -17 -25 -9 c-13 -5 -31 -11 -39 -14 -8 -3 -32 1 -54 8 -21 8
-53 14 -70 14 l-31 -1 39 -14 c74 -26 65 -43 -34 -66 -19 -4 -44 -10 -56 -14
-20 -6 -21 -2 -28 104 -6 102 -1 358 9 406 3 11 21 31 42 45 44 29 197 173
362 340 175 177 501 596 545 701 12 28 14 -4 19 -262 6 -349 22 -473 101 -814
8 -33 13 -63 10 -66 -2 -4 -14 -5 -27 -2 -19 5 -18 1 12 -31 32 -33 33 -36 14
-36 -12 0 -25 4 -28 10 -3 5 -16 15 -28 21 -12 6 -3 -7 21 -28 23 -21 39 -42
36 -46 -10 -10 -26 -9 -20 1 5 9 -50 42 -152 93 -34 17 -59 35 -56 41 6 10
-55 2 -91 -13 -14 -5 -4 -8 32 -8 59 -1 119 -24 193 -75 53 -36 53 -48 1 -21
-16 8 -31 12 -34 9 -2 -3 -46 12 -96 32 -51 20 -94 34 -97 31 -3 -3 11 -11 30
-18 20 -7 36 -16 36 -20 0 -4 8 -10 18 -13 9 -3 -10 -3 -43 -1 -123 10 -300
18 -295 13 3 -3 64 -11 137 -17 142 -13 445 -55 461 -65 5 -3 25 -43 43 -88
43 -108 235 -428 256 -428 3 0 -3 12 -13 28 -186 283 -249 433 -309 734 -97
480 -113 708 -80 1143 34 445 102 791 199 999 35 77 40 94 14 54z m-618 -2867
c0 -58 63 -121 122 -121 29 0 94 66 104 107 5 17 13 23 36 23 40 0 88 -27 88
-49 0 -23 -53 -103 -107 -160 -24 -25 -43 -49 -43 -53 0 -4 -6 -5 -14 -2 -8 3
-17 1 -21 -5 -3 -6 -26 -11 -51 -11 -30 0 -43 4 -38 11 4 8 1 8 -13 1 -15 -8
-29 -4 -67 20 -68 42 -135 125 -120 149 3 5 -2 16 -11 25 -9 9 -15 28 -13 43
3 23 8 27 50 31 26 3 50 9 54 13 4 4 16 7 26 7 13 0 18 -8 18 -29z"/>
<path d="M5905 7875 c2 -16 7 -111 11 -210 8 -216 -4 -374 -51 -685 -93 -618
-97 -756 -44 -1395 19 -237 44 -429 34 -270 -2 39 -10 160 -16 269 l-13 200
24 15 c37 25 151 60 195 60 l40 0 -25 -20 c-14 -11 -34 -28 -46 -38 -11 -10
-35 -26 -52 -37 -18 -10 -32 -22 -32 -27 0 -4 -4 -5 -10 -2 -15 9 -12 25 4 25
7 0 20 7 27 17 13 15 11 15 -18 -1 -18 -9 -33 -13 -33 -10 0 4 -11 -3 -25 -16
-29 -27 -23 -44 14 -35 14 4 94 18 176 31 83 13 197 32 255 43 58 11 146 22
195 26 50 4 99 11 110 15 34 13 -176 0 -254 -16 -40 -8 -85 -14 -100 -14 -15
0 -32 -5 -39 -12 -8 -8 -12 -9 -12 -1 0 6 12 21 28 32 22 16 12 15 -53 -10
-99 -38 -130 -46 -95 -27 14 8 36 22 50 31 23 15 166 77 178 77 2 0 -2 -7 -9
-17 -13 -15 -12 -15 6 -5 52 30 51 32 -20 32 -42 0 -65 -4 -57 -9 10 -6 -17
-25 -90 -63 -58 -31 -115 -59 -129 -63 -65 -19 -65 -19 -38 3 14 11 63 44 110
72 69 43 78 51 49 45 -19 -4 -57 -9 -85 -11 -77 -7 -144 -23 -193 -44 -24 -11
-48 -18 -52 -15 -4 3 -9 62 -9 132 -1 69 -4 130 -7 134 -7 11 14 318 31 454
28 216 65 479 79 550 8 39 17 90 21 115 l8 45 21 -45 c21 -43 103 -192 129
-235 29 -47 141 -205 190 -266 150 -191 176 -219 494 -540 144 -146 263 -268
263 -270 0 -3 -26 -2 -57 2 -32 4 -76 7 -98 7 -39 0 -39 0 -10 -8 17 -5 66
-15 110 -23 67 -12 86 -20 118 -49 l37 -34 0 -132 0 -131 -57 -11 c-32 -6 -69
-14 -82 -17 -18 -5 -22 -3 -16 7 6 10 1 12 -25 6 l-33 -6 19 21 c10 12 33 30
49 40 25 16 26 19 10 19 -11 0 -44 -9 -73 -20 -29 -11 -67 -20 -85 -20 l-32 0
34 28 c19 15 42 32 50 39 9 6 14 14 11 16 -3 3 -59 12 -125 21 -352 45 -764
-21 -814 -131 -15 -33 2 -36 30 -7 13 14 44 36 69 49 52 26 151 57 159 50 10
-10 29 -75 22 -79 -3 -2 -30 -11 -58 -20 -62 -21 -157 -87 -195 -139 -40 -52
-34 -57 12 -12 22 21 40 37 40 35 0 -3 -20 -45 -45 -95 -47 -93 -57 -125 -27
-89 9 12 27 25 39 29 13 3 22 9 21 13 -2 10 22 65 30 72 4 3 21 23 37 45 l30
40 6 -65 c6 -75 41 -159 89 -213 l32 -37 -38 -1 c-36 -1 -34 -2 21 -14 71 -16
366 -31 347 -18 -9 7 -2 18 29 42 91 73 150 207 131 295 -5 25 -6 43 -1 41 4
-3 10 -1 13 4 3 5 -6 12 -20 15 -15 4 -24 9 -22 11 8 8 129 -34 175 -61 39
-23 44 -28 28 -34 -18 -6 -18 -7 1 -15 10 -4 25 -7 32 -6 16 3 9 -30 -14 -66
-8 -12 -14 -29 -14 -38 0 -9 -4 -14 -9 -11 -5 3 -17 -6 -27 -21 -9 -15 -38
-50 -63 -77 -38 -41 -41 -46 -15 -28 18 12 46 39 65 59 37 43 69 68 69 55 0
-32 -145 -157 -222 -192 -34 -15 -37 -18 -13 -14 17 4 40 13 52 20 12 8 28 14
35 14 6 0 21 9 33 20 22 21 100 30 124 16 6 -4 11 -2 11 3 0 6 -18 14 -40 17
-40 6 -46 24 -9 24 11 0 22 6 25 14 3 8 11 14 17 12 7 -1 9 -1 5 1 -16 9 -7
31 18 48 14 9 23 22 20 30 -3 8 6 15 27 19 18 3 44 13 60 20 23 13 27 13 27 1
0 -38 -44 -236 -65 -292 -35 -91 -100 -213 -134 -251 -17 -17 -26 -32 -22 -32
14 0 96 93 124 142 46 76 85 201 107 330 11 68 24 146 30 173 12 67 7 599 -9
805 -14 186 -18 213 -30 206 -4 -3 -16 53 -26 124 -10 72 -20 130 -23 130 -4
0 0 -62 15 -220 3 -30 6 -76 7 -102 1 -25 5 -44 10 -40 5 3 6 -2 3 -12 -4 -10
-7 -23 -7 -29 0 -21 -18 7 -38 58 -11 28 -36 84 -55 125 -20 41 -60 129 -90
196 -48 109 -190 364 -203 364 -2 0 25 -57 60 -128 59 -115 150 -312 243 -527
19 -44 48 -109 65 -145 33 -70 32 -69 43 -150 l7 -55 -23 21 c-13 11 -46 40
-74 64 -287 251 -525 572 -760 1023 -37 70 -69 127 -72 127 -8 0 152 -300 238
-447 84 -142 170 -261 325 -448 102 -124 132 -155 262 -274 67 -61 94 -93 102
-119 17 -64 16 -63 -140 83 -312 292 -635 668 -824 960 -86 132 -104 167 -146
281 -43 119 -55 131 -16 15 14 -39 21 -69 17 -66 -19 11 -64 144 -67 200 -2
33 -9 143 -14 245 -6 102 -17 210 -25 240 -8 30 -12 42 -10 25z m748 -2548
c51 -21 57 -31 28 -56 -10 -9 -21 -25 -25 -36 -8 -25 -91 -114 -133 -143 -24
-17 -46 -22 -92 -22 -61 0 -115 16 -105 31 3 5 -1 9 -9 9 -28 0 -126 136 -126
175 0 25 28 43 77 50 46 6 52 5 52 -12 0 -59 88 -126 136 -104 28 12 84 87 84
111 0 35 24 35 113 -3z"/>
<path d="M6500 7812 c0 -7 4 -12 9 -12 5 0 12 -8 15 -18 4 -10 14 -27 24 -38
33 -36 61 -81 55 -88 -3 -3 -1 -6 6 -6 7 0 10 -4 7 -8 -3 -5 5 -24 18 -43 108
-162 255 -514 296 -712 6 -31 16 -57 21 -57 12 0 12 -1 -11 93 -66 261 -184
534 -317 732 -98 146 -123 178 -123 157z"/>
<path d="M6770 7597 c0 -2 12 -32 26 -68 52 -128 122 -347 159 -497 21 -85 42
-147 46 -141 4 7 10 -9 14 -37 4 -27 12 -56 16 -64 28 -46 -56 286 -119 470
-52 155 -142 367 -142 337z"/>
<path d="M3257 7138 c-15 -35 -46 -117 -71 -183 -97 -262 -160 -417 -231 -560
-82 -167 -132 -249 -250 -410 -80 -108 -194 -275 -209 -305 -20 -43 173 227
300 416 159 240 217 364 411 884 36 96 70 183 75 193 5 10 8 21 5 23 -2 2 -16
-24 -30 -58z"/>
<path d="M4896 7108 c-4 -51 -16 -160 -27 -243 -43 -332 -49 -397 -56 -565 -9
-255 6 -376 68 -560 53 -157 76 -208 140 -315 73 -123 78 -109 6 19 -39 71
-127 288 -127 314 0 10 7 12 25 8 38 -10 30 8 -10 23 -53 19 -75 100 -82 298
-5 142 11 444 26 485 3 10 16 -39 29 -110 33 -179 73 -346 120 -497 22 -71 39
-131 38 -132 -2 -2 -20 4 -41 12 -48 21 -58 12 -11 -10 47 -23 62 -41 47 -59
-9 -11 -6 -12 13 -9 23 5 30 -6 96 -138 39 -78 87 -167 107 -198 72 -113 193
-241 295 -312 63 -43 197 -113 204 -106 3 2 -23 19 -58 36 -273 140 -486 423
-641 851 -62 170 -93 286 -125 459 -26 141 -27 158 -26 494 0 191 0 347 -1
347 -2 0 -6 -42 -9 -92z"/>
<path d="M4258 7082 c-19 -27 -62 -86 -94 -133 -32 -46 -110 -156 -173 -244
-213 -297 -271 -391 -271 -436 0 -16 16 5 51 66 28 50 59 99 69 110 10 11 25
34 34 52 9 18 22 36 30 40 7 4 47 58 88 118 41 61 113 166 160 235 80 117 155
240 146 240 -2 0 -20 -22 -40 -48z"/>
<path d="M7265 7090 c3 -25 11 -99 19 -165 54 -444 46 -1060 -18 -1440 -18
-112 -30 -242 -16 -180 110 475 124 1299 30 1740 -11 50 -18 70 -15 45z"/>
<path d="M7470 6401 c0 -207 -16 -369 -56 -586 -73 -390 -170 -731 -241 -849
-37 -61 -186 -219 -253 -268 -19 -14 -60 -31 -90 -37 l-55 -10 52 4 c28 2 69
13 91 24 50 25 104 70 97 81 -5 7 59 70 71 70 3 0 -4 -12 -16 -27 -12 -16 -50
-75 -85 -133 -114 -189 -126 -206 -168 -234 -57 -36 -110 -50 -189 -51 -46 0
-60 -2 -45 -8 21 -8 134 -5 188 5 44 8 116 65 175 138 30 38 104 157 163 264
96 174 115 217 170 383 34 104 70 229 81 278 45 203 80 387 95 500 31 239 46
615 25 615 -6 0 -10 -60 -10 -159z"/>
<path d="M5571 6385 c-1 -53 21 -253 39 -357 16 -90 64 -267 114 -421 24 -72
50 -159 57 -192 7 -33 19 -73 26 -90 12 -25 13 -26 8 -5 -14 63 -34 213 -40
295 -3 50 -12 164 -21 255 -8 91 -18 217 -23 280 -8 111 -8 112 -9 35 -1 -44
5 -161 13 -260 9 -99 18 -225 20 -280 l5 -100 -16 45 c-51 152 -133 538 -163
775 -8 67 -9 68 -10 20z"/>
<path d="M5531 5794 c-1 -7 6 -34 14 -60 8 -27 26 -92 40 -144 70 -257 119
-376 203 -493 106 -147 217 -209 365 -206 l52 2 -40 7 c-22 4 -49 11 -59 15
-14 6 -17 5 -11 -4 5 -10 2 -12 -11 -8 -11 3 -38 11 -61 17 -79 20 -211 147
-273 261 -46 84 -81 175 -119 306 -43 150 -99 320 -100 307z"/>
<path d="M5660 5465 c0 -2 11 -30 25 -61 14 -31 25 -62 25 -70 0 -19 63 -123
110 -183 64 -80 173 -184 221 -209 26 -14 34 -16 19 -5 -86 62 -146 140 -179
232 -30 87 -39 79 -15 -14 4 -17 2 -16 -16 5 -11 14 -31 36 -43 50 -12 14 -35
52 -52 85 -16 33 -33 62 -37 63 -5 2 -8 9 -8 15 0 13 -40 97 -46 97 -2 0 -4
-2 -4 -5z"/>
<path d="M3589 5230 c-1 -14 -1 -29 0 -33 1 -5 3 -21 5 -35 3 -27 25 -82 36
-92 3 -3 14 -26 23 -51 10 -26 50 -100 88 -165 46 -78 85 -159 111 -234 53
-151 126 -303 178 -368 23 -29 69 -74 103 -99 64 -47 48 -51 -28 -8 -37 21
-124 103 -160 150 -15 20 -15 20 -7 -2 4 -12 30 -45 57 -74 28 -29 49 -57 47
-63 -2 -6 -1 -8 3 -4 4 4 16 -2 27 -12 23 -21 171 -70 209 -69 15 0 6 5 -24
13 -53 15 -79 32 -32 23 20 -5 12 2 -23 18 -126 58 -215 193 -321 484 l-31 85
32 -30 c18 -17 47 -41 64 -52 39 -26 144 -55 182 -49 24 3 23 4 -7 6 -60 2
-193 74 -245 132 -104 116 -215 316 -247 446 -7 26 -18 62 -25 78 -13 29 -13
30 -15 5z"/>
<path d="M3180 4451 c0 -11 9 -22 19 -26 11 -3 25 -13 33 -22 11 -15 11 -16
-6 -10 -16 6 -17 4 -12 -20 4 -18 3 -23 -2 -14 -8 10 -11 10 -17 1 -6 -9 -12
-6 -22 11 l-14 24 7 -25 c4 -14 12 -28 17 -32 8 -4 4 -14 -8 -29 -11 -12 -14
-19 -7 -15 6 4 12 4 12 1 0 -8 -50 -74 -77 -102 -26 -27 -123 -86 -123 -75 0
13 106 113 112 106 9 -8 30 34 23 46 -3 5 -26 -14 -52 -41 -54 -58 -169 -143
-183 -134 -5 3 -24 -1 -42 -9 -33 -14 -33 -14 -6 -15 38 -1 128 21 128 31 0 5
4 7 10 3 12 -7 98 36 138 70 46 39 105 123 98 141 -3 8 -2 13 3 10 5 -3 16 12
25 34 9 22 21 40 28 40 13 1 -61 70 -74 70 -5 0 -8 -9 -8 -19z"/>
<path d="M10755 3727 c-20 -13 -222 -100 -367 -156 -153 -60 -722 -218 -802
-222 -15 -1 -13 -3 9 -9 l30 -8 -30 -2 c-16 -1 -24 -4 -17 -7 16 -6 102 18
102 29 0 4 10 8 22 8 28 0 297 70 466 121 142 43 276 92 432 157 176 74 200
85 200 93 0 13 -23 11 -45 -4z"/>
<path d="M1335 3280 c-6 -10 1 -14 18 -11 5 1 7 -4 4 -11 -2 -7 -12 -12 -22
-10 -14 3 -15 1 -4 -11 12 -12 15 -12 24 0 10 13 13 13 24 0 16 -20 29 -163
13 -154 -5 4 -13 1 -16 -5 -3 -7 -4 19 -1 59 3 39 2 74 -2 76 -11 7 -18 -112
-18 -293 1 -111 6 -179 19 -240 22 -102 37 -136 31 -66 -3 27 -10 55 -17 63
-8 10 -8 17 0 25 9 9 12 7 12 -9 0 -12 4 -24 9 -27 5 -3 12 -23 15 -43 3 -21
8 -45 10 -53 2 -8 7 -30 11 -47 4 -18 11 -30 16 -27 5 3 9 1 9 -4 0 -18 -30
-22 -31 -4 0 9 -3 12 -5 6 -2 -6 2 -26 10 -45 l14 -34 7 28 7 28 14 -27 c18
-34 18 -55 0 -31 -13 17 -14 17 -18 -1 -3 -11 1 -30 9 -43 l14 -24 -7 24 c-4
15 -2 21 4 17 6 -3 13 0 16 6 3 7 3 2 0 -11 -5 -17 -3 -21 7 -16 9 6 11 3 6
-10 -5 -11 -1 -22 9 -30 13 -9 14 -16 5 -33 -18 -34 -12 -40 7 -7 18 30 18 30
-18 110 -91 197 -122 364 -118 629 3 185 2 192 -20 229 -24 38 -36 45 -47 27z"/>
<path d="M9300 2886 c0 -151 -55 -389 -128 -548 -16 -37 -28 -69 -24 -72 11
-12 23 -5 20 12 -2 10 2 16 11 14 8 -2 11 3 8 12 -4 9 -1 18 6 22 7 4 9 4 5
-1 -4 -4 -3 -17 3 -28 8 -14 8 -18 0 -13 -6 4 -11 1 -11 -8 0 -8 -6 -19 -14
-23 -19 -12 -38 -52 -30 -65 5 -7 3 -8 -6 -3 -9 6 -10 2 -5 -16 6 -19 5 -22
-6 -12 -10 10 -9 20 4 53 24 61 5 56 -28 -8 -17 -31 -32 -59 -35 -62 -3 -3
-17 -24 -32 -46 -15 -23 -47 -67 -72 -97 -28 -35 -43 -62 -40 -72 7 -17 25
-11 20 8 -1 7 -1 9 1 4 3 -4 10 -4 15 -1 7 4 8 2 4 -4 -4 -7 0 -12 10 -12 10
0 15 2 12 5 -3 3 10 22 29 41 19 20 32 42 29 49 -2 6 0 18 6 26 8 11 8 9 4 -6
-4 -15 1 -12 19 10 14 17 25 36 25 43 0 6 4 12 9 12 5 0 19 19 31 43 12 23 30
57 40 75 11 17 16 32 12 32 -4 0 -2 4 4 8 13 8 47 83 75 161 15 42 16 56 7 62
-16 10 -29 -11 -22 -33 3 -12 0 -18 -10 -18 -18 0 -21 -11 -7 -26 5 -5 5 -18
1 -29 -7 -17 -9 -17 -9 -2 -1 9 -5 17 -11 17 -5 0 -10 5 -10 11 0 5 4 8 9 5 5
-4 7 3 4 14 -3 11 -1 20 4 20 5 0 15 21 23 48 8 26 16 40 18 30 2 -9 9 -19 17
-22 26 -9 89 334 66 357 -8 8 -11 -5 -11 -43 0 -39 -3 -51 -10 -40 -13 19 -13
8 0 -24 6 -17 6 -26 0 -26 -6 0 -8 -12 -4 -27 5 -23 4 -26 -7 -15 -10 9 -12
45 -11 147 2 74 0 135 -3 135 -3 0 -5 -33 -5 -74z"/>
<path d="M305 2341 c-37 -22 -61 -49 -69 -78 -16 -52 117 -85 327 -82 97 1
142 -2 150 -10 9 -10 8 -11 -5 -6 -18 7 -140 -70 -202 -129 -104 -97 -194
-147 -399 -221 -94 -34 -107 -42 -107 -62 0 -25 3 -27 28 -14 9 4 31 11 47 15
28 7 26 5 -15 -25 -64 -45 -72 -56 -21 -28 24 13 53 34 66 47 12 12 66 40 119
62 l97 39 -26 -30 c-25 -30 -34 -90 -17 -115 30 -42 198 -69 265 -41 35 15 37
15 28 -1 -11 -21 -120 -125 -181 -173 -25 -20 -123 -82 -217 -139 -127 -75
-173 -108 -173 -122 0 -16 3 -17 20 -8 11 6 18 15 15 20 -3 6 0 7 8 4 8 -3 21
2 30 10 9 9 18 16 22 16 4 0 51 29 105 65 54 36 107 68 117 72 9 4 -58 -67
-150 -156 -146 -143 -186 -191 -160 -191 4 0 64 55 133 123 69 67 147 142 173
165 26 24 45 47 42 52 -3 5 0 12 6 16 8 5 9 3 4 -6 -16 -26 15 -3 99 74 47 43
83 83 79 89 -3 5 -1 7 5 3 10 -6 194 124 221 158 13 16 12 17 -15 11 -16 -4
-64 -18 -107 -31 -133 -41 -335 -30 -338 19 0 6 -2 24 -3 39 -1 14 3 24 8 21
5 -4 7 1 3 11 -4 9 -3 15 2 12 4 -3 44 28 87 70 43 41 132 115 196 163 65 49
114 92 110 96 -4 5 -1 5 6 1 8 -5 34 6 66 27 29 19 76 47 105 62 29 14 50 29
47 32 -3 3 -12 1 -19 -5 -8 -7 -16 -10 -18 -7 -3 2 -43 -7 -89 -21 -177 -53
-560 -38 -560 21 0 19 40 65 74 86 17 10 27 19 21 19 -5 0 -23 -8 -40 -19z"/>
<path d="M1546 2273 c-11 -21 -12 -34 -5 -38 5 -4 15 -19 20 -33 10 -25 12
-26 23 -9 7 9 16 17 19 17 4 0 6 -8 4 -17 -1 -10 2 -19 7 -20 9 -1 26 -23 26
-35 0 -8 -21 -5 -39 6 -8 6 -7 -1 4 -18 19 -29 27 -34 19 -12 -3 9 0 14 8 12
24 -3 39 -18 34 -33 -3 -8 -1 -11 4 -8 6 3 10 4 10 1 0 -2 3 -13 7 -23 6 -16
5 -16 -10 -4 -9 7 -17 10 -17 5 0 -4 -7 1 -16 12 -14 18 -14 18 -3 -6 7 -14
24 -39 38 -57 14 -17 33 -42 42 -54 14 -20 16 -21 22 -5 4 10 3 15 -3 11 -6
-3 -7 1 -4 9 9 23 26 8 18 -16 -4 -13 -2 -18 4 -14 5 3 13 -1 16 -10 10 -25 7
-27 -11 -13 -10 7 -4 -2 12 -21 57 -65 79 -85 73 -68 -4 9 -1 18 5 21 8 3 12
-5 12 -22 0 -20 4 -25 19 -23 13 3 17 -1 13 -12 -6 -15 26 -44 131 -120 42
-31 55 -36 67 -26 11 9 18 9 32 -2 20 -14 28 -38 14 -38 -5 0 -11 7 -15 15 -6
16 -26 21 -26 6 0 -5 31 -25 68 -44 52 -28 71 -34 80 -25 9 9 15 9 24 0 9 -9
8 -12 -7 -12 -15 -1 -12 -4 10 -14 17 -7 39 -11 50 -8 14 3 16 1 7 -6 -10 -6
-1 -13 30 -25 44 -16 127 -34 118 -24 -13 13 -167 71 -185 69 -14 -2 -16 0 -7
6 9 6 -5 18 -48 40 -33 18 -78 45 -101 61 -22 17 -46 28 -54 25 -18 -7 -57 14
-50 27 4 5 13 3 21 -6 22 -22 30 -18 10 4 -10 11 -25 17 -34 14 -9 -4 -13 -2
-9 4 4 6 -8 22 -26 36 -52 40 -257 250 -257 264 0 1 -21 31 -46 65 -45 61 -66
97 -110 182 l-21 41 -17 -32z"/>
<path d="M1151 1987 c-6 -8 -7 -18 -3 -22 4 -5 1 -5 -6 -1 -13 8 -65 -27 -55
-38 3 -3 -3 -6 -15 -6 -31 0 -158 -84 -209 -139 -27 -28 -43 -55 -43 -71 0
-36 51 -74 133 -100 63 -20 83 -22 184 -16 62 4 113 4 113 1 0 -4 -11 -20 -25
-37 -23 -27 -24 -31 -9 -53 22 -34 112 -65 189 -65 l40 0 -32 -25 c-37 -30
-123 -136 -147 -182 -21 -43 -20 -79 3 -95 18 -13 13 -20 -73 -108 -98 -101
-206 -235 -206 -254 0 -6 5 -3 11 7 5 9 17 17 26 17 9 0 14 3 10 6 -3 3 10 19
29 36 19 16 31 34 28 39 -3 5 2 6 10 3 15 -6 21 6 17 29 -1 5 2 6 7 3 12 -7
84 62 77 74 -3 6 1 7 9 4 16 -6 23 10 9 19 -5 2 -2 2 6 0 7 -2 27 11 45 28 17
17 41 38 54 47 18 12 20 17 10 24 -10 7 -10 9 2 5 8 -2 26 0 40 5 14 6 57 19
95 29 80 23 208 70 215 80 3 4 17 10 31 14 19 5 28 2 33 -10 3 -9 2 -14 -3
-11 -5 3 -28 -18 -52 -46 -59 -70 -110 -128 -134 -153 -31 -31 -87 -105 -79
-105 3 0 23 19 43 42 20 23 50 55 66 72 17 17 42 46 58 65 15 18 27 30 27 25
0 -4 7 1 15 12 17 22 20 12 4 -17 -5 -11 -14 -17 -20 -14 -5 4 -9 0 -9 -8 0
-8 -7 -20 -15 -27 -8 -7 -12 -16 -9 -21 3 -5 0 -9 -7 -9 -7 0 -9 -3 -6 -7 8
-7 144 124 193 186 19 24 34 54 34 67 0 13 4 24 8 24 10 0 62 99 62 118 0 19
-6 15 -66 -42 -104 -98 -259 -179 -424 -220 -124 -31 -183 -9 -144 53 25 39
35 47 212 174 142 102 217 165 208 175 -2 1 -21 -6 -42 -17 -144 -73 -231 -85
-366 -50 -34 9 -37 12 -28 34 5 14 7 33 4 42 -4 13 -3 14 3 5 8 -10 12 -10 23
3 7 8 34 27 61 42 44 23 47 27 31 39 -15 11 -13 14 22 29 49 21 41 30 -10 11
-22 -8 -90 -30 -152 -50 -130 -41 -236 -48 -319 -20 -49 16 -93 49 -93 68 0 6
10 19 23 28 149 114 202 158 200 167 -2 6 4 8 14 4 12 -5 14 -3 8 7 -6 10 -4
12 8 7 8 -3 18 0 21 8 3 10 0 12 -12 9 -14 -5 -14 -4 -3 4 8 6 19 8 26 6 6 -3
20 4 30 16 11 12 13 20 6 20 -7 0 -9 5 -6 10 9 15 -1 12 -14 -3z"/>
<path d="M10166 1885 c10 -8 23 -15 27 -15 5 0 67 -41 138 -91 80 -56 133 -88
141 -83 7 4 10 4 6 -1 -10 -11 143 -117 159 -111 7 3 12 0 10 -6 -2 -10 127
-97 146 -98 4 0 7 8 7 19 0 20 -10 28 -205 151 -71 46 -141 92 -155 103 l-25
20 25 -5 c14 -3 79 -21 145 -41 140 -41 215 -54 215 -39 0 6 -19 16 -42 23
-24 6 -92 26 -153 44 -316 96 -405 125 -424 134 -29 16 -38 13 -15 -4z"/>
<path d="M10144 1787 c0 -41 -32 -106 -64 -129 -14 -10 -52 -21 -87 -24 -58
-6 -62 -8 -52 -27 8 -15 7 -23 -4 -35 -34 -34 -375 25 -532 93 l-60 25 35 -30
c19 -17 45 -36 57 -43 43 -24 199 -141 241 -181 61 -58 57 -73 -22 -81 -35 -4
-72 -5 -82 -2 -161 42 -245 73 -280 104 -28 25 -32 31 -14 22 l25 -12 -20 20
c-11 11 -22 19 -24 17 -7 -6 -42 17 -37 25 3 4 -15 28 -41 52 l-45 44 23 -37
c13 -21 30 -38 37 -38 7 0 11 -4 8 -9 -3 -5 21 -38 54 -74 l60 -65 -67 5 c-38
3 -90 14 -117 24 -68 25 -71 15 -5 -16 l54 -25 -40 6 c-28 5 -37 3 -30 -4 6
-6 59 -13 120 -15 102 -3 110 -5 128 -28 25 -34 14 -55 -38 -69 -25 -7 -43
-15 -41 -19 13 -21 -176 0 -301 35 -13 4 -23 4 -23 1 0 -12 156 -55 222 -62
119 -12 228 29 228 85 0 12 -15 34 -32 51 l-33 29 120 -40 c65 -23 124 -45
130 -50 6 -5 47 -19 90 -31 91 -25 205 -30 229 -10 26 22 18 33 -9 15 -20 -13
-41 -16 -93 -12 -67 6 -192 37 -192 49 0 4 25 9 55 11 68 6 78 14 66 56 -15
51 -75 114 -138 147 -94 48 -144 77 -140 81 2 2 51 -9 108 -25 132 -37 339
-60 374 -41 14 7 25 24 27 39 3 23 9 27 50 33 26 3 61 16 77 27 44 32 75 124
53 158 -5 8 -8 0 -8 -20z"/>
<path d="M947 1450 c-42 -43 -97 -107 -121 -140 -78 -106 -113 -140 -256 -247
-76 -57 -401 -246 -522 -304 -32 -15 -46 -28 -45 -41 2 -23 1 -23 48 4 21 11
35 26 32 31 -3 6 -1 7 6 3 7 -5 51 14 104 45 145 83 289 170 321 192 35 25 34
22 -35 -83 -68 -104 -140 -233 -203 -365 -78 -161 -92 -217 -60 -229 24 -9 25
-8 13 13 -12 19 12 70 131 281 133 235 372 580 403 580 2 0 8 -15 11 -34 9
-49 45 -62 132 -47 57 10 184 62 184 76 0 2 -24 -7 -52 -20 -29 -13 -81 -31
-116 -40 -142 -37 -158 22 -58 212 6 13 47 61 89 108 43 47 76 85 74 85 -2 0
-39 -36 -80 -80z"/>
<path d="M1063 1133 c-47 -46 -100 -117 -228 -306 -72 -106 -172 -262 -191
-300 -14 -26 -14 -27 4 -16 11 7 28 26 38 43 10 17 22 36 26 41 4 6 18 24 31
40 13 17 73 102 132 190 101 148 183 265 203 290 19 24 44 65 39 65 -3 0 -28
-21 -54 -47z"/>
<path d="M939 499 c-12 -8 -11 -12 5 -24 26 -20 13 -19 -27 1 -18 9 -29 13
-25 9 5 -5 -6 -17 -22 -27 -40 -24 -58 -23 -29 1 13 11 -15 1 -63 -22 -47 -23
-84 -45 -82 -49 3 -4 -3 -8 -13 -8 -27 0 -80 -36 -88 -59 -20 -65 101 -321
152 -321 8 0 -1 15 -19 33 -49 49 -99 149 -105 212 -3 32 -2 55 4 55 5 0 18 8
29 18 10 10 52 31 91 47 40 15 70 31 68 36 -3 4 4 5 15 2 15 -4 19 -2 14 10
-4 12 0 14 18 10 16 -3 19 -2 10 5 -11 7 -8 11 13 16 14 4 30 4 35 1 15 -9 69
26 63 41 -7 18 -27 24 -44 13z"/>
<path d="M1570 476 c-14 -6 -27 -13 -30 -17 -3 -3 -15 -9 -28 -13 -12 -4 -20
-12 -17 -17 3 -5 0 -6 -8 -3 -18 7 -110 -40 -100 -51 5 -4 3 -5 -4 -1 -17 9
-510 -229 -506 -245 2 -4 -4 -6 -12 -3 -8 3 -36 -7 -62 -22 -27 -16 -55 -32
-63 -36 -11 -5 -9 -7 7 -7 12 -1 28 5 35 12 7 8 18 12 23 10 15 -4 180 76 178
87 -2 5 3 7 10 4 8 -3 69 22 138 54 68 32 171 81 229 108 57 27 152 72 210
100 100 49 103 51 65 51 -22 0 -51 -5 -65 -11z"/>
</g>
</svg>
